<?xml version="1.0" standalone="no"?>
<!DOCTYPE svg PUBLIC "-//W3C//DTD SVG 20010904//EN"
 "http://www.w3.org/TR/2001/REC-SVG-20010904/DTD/svg10.dtd">
<svg version="1.0" xmlns="http://www.w3.org/2000/svg"
 width="1056.000000pt" height="1056.000000pt" viewBox="0 0 1056.000000 1056.000000"
 preserveAspectRatio="xMidYMid meet">
<metadata>
Created by potrace 1.11, written by Peter Selinger 2001-2013
</metadata>
<g transform="translate(0.000000,1056.000000) scale(0.100000,-0.100000)"
fill="#000000" stroke="none">
<path d="M22 7444 l3 -965 60 -34 c33 -19 67 -38 75 -42 16 -8 204 -117 230
-133 45 -28 172 -100 177 -100 2 0 23 -13 46 -28 23 -15 53 -33 67 -40 14 -6
32 -16 40 -22 33 -21 362 -210 366 -210 3 0 24 -13 47 -29 23 -16 47 -30 52
-31 6 -2 19 -8 30 -15 23 -14 152 -89 206 -120 38 -21 242 -139 287 -166 15
-9 54 -31 87 -49 33 -18 77 -44 97 -57 21 -12 42 -23 47 -23 5 0 16 -6 24 -14
8 -8 41 -29 73 -46 33 -18 63 -35 67 -39 7 -7 -118 -83 -278 -171 -22 -12 -47
-28 -56 -36 -8 -8 -19 -14 -22 -14 -8 0 -418 -235 -434 -250 -7 -5 -15 -10
-18 -10 -2 0 -119 -66 -257 -147 -139 -80 -268 -153 -285 -162 -18 -8 -33 -19
-33 -23 0 -4 -4 -8 -9 -8 -6 0 -52 -25 -104 -55 -51 -30 -99 -55 -105 -55 -5
0 -12 -4 -14 -8 -1 -5 -24 -20 -49 -34 -79 -44 -94 -53 -99 -58 -6 -6 -86 -50
-117 -65 -13 -5 -23 -13 -23 -17 0 -5 -4 -8 -9 -8 -4 0 -45 -21 -90 -46 l-81
-46 0 -964 c0 -530 3 -964 6 -964 3 0 33 16 67 36 34 20 77 45 95 56 18 10 93
53 165 95 132 76 168 97 230 131 17 11 77 45 132 77 55 32 170 98 255 147 85
50 166 97 180 106 14 9 27 17 30 17 3 0 21 10 41 23 20 12 41 22 48 22 6 0 11
5 11 10 0 6 4 10 9 10 8 0 181 98 207 117 13 10 91 53 121 67 13 6 23 14 23
19 0 4 6 7 13 7 7 0 36 16 66 35 29 19 55 35 58 35 9 0 148 84 155 95 4 5 8 7
8 3 0 -6 84 40 150 82 8 6 40 23 70 40 65 35 136 76 167 96 12 7 38 23 57 34
20 11 52 29 71 40 81 46 106 60 108 60 2 0 3 -327 4 -727 0 -826 -10 -750 89
-687 30 19 54 31 54 27 0 -4 4 -3 8 2 8 13 93 63 106 63 5 0 12 4 15 9 3 4 20
16 36 25 125 73 396 228 438 252 29 16 55 34 59 40 4 6 8 7 8 3 0 -5 12 0 28
11 15 10 47 31 72 44 25 14 68 38 95 54 28 15 53 33 57 38 4 6 8 7 8 3 0 -4
17 4 37 18 21 14 43 25 50 25 7 0 13 4 13 9 0 5 8 11 18 14 9 4 40 20 67 36
28 17 83 50 124 73 40 24 97 57 125 73 70 40 214 123 251 143 17 9 32 19 35
22 3 3 21 13 40 24 60 32 121 67 223 128 55 32 101 58 104 58 2 0 24 14 49 30
24 17 44 29 44 26 0 -3 36 17 80 44 44 28 82 50 85 50 3 0 23 11 43 25 20 14
42 25 48 25 8 0 10 -200 10 -716 -1 -394 2 -718 5 -719 7 -5 23 4 168 88 62
37 115 67 116 67 1 0 44 25 94 55 51 30 94 55 97 55 2 0 21 11 42 24 30 19
240 141 407 236 17 10 71 41 120 70 50 29 108 62 130 75 49 27 105 59 148 84
431 250 619 358 649 375 33 19 145 84 190 111 9 5 41 23 70 39 29 16 65 37 80
47 14 11 28 19 31 19 3 0 61 33 129 73 68 40 173 101 233 135 61 35 117 67
125 72 78 48 365 210 371 210 5 0 9 4 9 9 0 5 12 14 27 20 16 6 45 21 66 33
21 13 54 32 73 43 45 26 383 222 450 260 96 55 199 114 249 143 28 16 120 69
205 119 85 49 184 106 220 127 36 20 72 41 80 46 43 27 152 90 155 90 1 0 64
36 140 80 76 44 141 80 146 80 5 0 9 5 9 10 0 6 4 10 9 10 5 0 72 37 150 82
78 46 161 93 184 106 23 13 46 27 50 31 9 9 -164 117 -250 156 -18 9 -33 20
-33 25 0 6 -7 10 -15 10 -14 0 -61 25 -75 40 -3 3 -23 14 -45 26 -41 21 -246
139 -382 220 -41 24 -76 44 -79 44 -2 0 -28 16 -58 35 -30 19 -57 35 -60 35
-5 0 -118 65 -156 90 -8 6 -21 13 -29 17 -8 4 -75 42 -149 85 -74 43 -136 78
-137 78 -2 0 -39 22 -82 48 -43 27 -93 55 -111 63 -17 7 -32 17 -32 20 0 4 -8
9 -17 13 -10 3 -25 10 -33 15 -27 18 -152 91 -156 91 -2 0 -43 24 -91 53 -49
28 -102 59 -118 67 -17 8 -37 19 -45 26 -8 6 -36 23 -62 38 -106 58 -145 80
-180 103 -21 12 -42 23 -48 23 -5 0 -10 5 -10 10 0 6 -4 10 -9 10 -5 0 -49 23
-98 51 -48 29 -108 63 -133 77 -71 39 -163 93 -192 114 -15 10 -30 18 -32 18
-3 0 -51 27 -107 60 -55 33 -104 60 -109 60 -4 0 -18 8 -31 18 -13 10 -55 36
-94 57 -38 20 -77 44 -86 51 -8 8 -19 14 -23 14 -3 0 -61 32 -129 71 -159 94
-182 106 -247 142 -30 16 -62 35 -70 41 -8 6 -35 22 -60 35 -25 13 -52 29 -60
35 -17 12 -44 28 -105 60 -22 12 -51 29 -65 38 -14 9 -50 30 -80 47 -76 43
-192 110 -210 121 -22 14 -164 95 -240 138 -25 14 -62 36 -82 49 -21 12 -42
23 -48 23 -5 0 -10 3 -10 8 0 4 -15 13 -33 21 -17 8 -34 17 -37 20 -3 4 -30
19 -60 35 -30 16 -71 40 -90 53 -19 13 -40 23 -47 23 -7 0 -13 5 -13 10 0 6
-4 10 -9 10 -5 0 -55 27 -111 60 -56 33 -103 60 -105 60 -2 0 -33 18 -70 41
-37 22 -70 38 -73 35 -3 -3 -5 -324 -5 -713 0 -390 -3 -715 -8 -723 -5 -10 -8
-11 -9 -2 0 6 -5 12 -10 12 -6 0 -29 11 -51 26 -42 26 -64 39 -164 94 -33 18
-64 36 -70 40 -5 4 -26 17 -45 28 -19 10 -107 61 -195 112 -211 122 -223 129
-273 157 -38 22 -185 107 -317 185 -27 16 -62 34 -77 41 -16 6 -28 15 -28 19
0 4 -7 8 -15 8 -8 0 -15 5 -15 10 0 6 -6 10 -13 10 -8 0 -42 18 -75 40 -34 22
-62 37 -62 33 0 -3 -8 1 -18 9 -9 8 -63 41 -120 72 -56 32 -105 62 -108 67 -3
5 -10 7 -15 4 -5 -4 -9 -1 -9 4 0 6 -4 11 -9 11 -6 0 -47 22 -93 50 -46 27
-89 50 -95 50 -7 0 -13 3 -13 8 0 4 -21 19 -47 32 -26 14 -82 46 -125 73 -43
26 -80 47 -83 47 -3 0 -22 11 -43 23 -20 13 -57 35 -82 49 -67 37 -109 62
-169 97 -29 18 -56 29 -59 26 -3 -3 -6 -330 -7 -728 -1 -397 -3 -723 -4 -724
-1 -3 -25 10 -103 56 -18 10 -49 27 -68 37 -19 11 -40 25 -48 32 -7 6 -19 12
-27 12 -7 0 -15 3 -17 8 -1 4 -16 14 -33 23 -16 9 -61 34 -100 57 -38 22 -72
39 -75 38 -3 0 -12 5 -20 12 -8 7 -46 31 -85 53 -38 23 -95 56 -127 75 -31 19
-61 34 -67 34 -6 0 -11 4 -11 9 0 5 -10 13 -22 17 -12 3 -45 22 -74 40 -29 19
-55 34 -58 34 -3 0 -34 17 -68 38 -35 21 -83 50 -108 64 -25 14 -63 35 -85 48
-22 12 -80 46 -130 75 -85 50 -115 67 -202 116 -21 12 -42 24 -48 29 -5 4 -41
24 -80 45 -38 20 -77 44 -86 51 -8 8 -19 14 -22 14 -4 0 -56 29 -116 65 -60
36 -114 65 -118 65 -5 0 -14 5 -21 12 -14 14 -114 72 -154 90 -16 7 -28 16
-28 20 0 4 -4 8 -9 8 -6 0 -60 29 -121 65 -138 81 -199 115 -205 115 -3 0 -4
-435 -3 -966z"/>
</g>
</svg>
